<svg xmlns="http://www.w3.org/2000/svg" xlink="http://www.w3.org/1999/xlink" viewBox="0 0 100.44 100"><defs><linearGradient id="a8b3a52f5-2d39-423c-949d-97d16de29981" x1="110.71" y1="50.8" x2="82.64" y2="140.75" gradientTransform="matrix(.98 -.17 .17 .98 -70.43 -29.15)" gradientUnits="userSpaceOnUse"><stop offset="0" stop-color="#42b983"/><stop offset="1" stop-color="#42b983"/></linearGradient><linearGradient id="bc1cbd4b4-df84-4a04-a9ec-16c64a6fb478" x1="127.27" y1="55.97" x2="99.2" y2="145.92" href="#a8b3a52f5-2d39-423c-949d-97d16de29981"/><linearGradient id="c44b8fb0b-dc81-45b7-83c9-0b8bdfc96115" x1="109.53" y1="50.43" x2="81.45" y2="140.38" href="#a8b3a52f5-2d39-423c-949d-97d16de29981"/><linearGradient id="d9debf231-580f-44e3-a14c-837e806f5d07" x1="157.6" y1="65.43" x2="129.52" y2="155.38" href="#a8b3a52f5-2d39-423c-949d-97d16de29981"/><linearGradient id="e0e75c2b6-d8f3-4f7d-9e7f-f98dce68d017" x1="152.91" y1="63.97" x2="124.84" y2="153.92" href="#a8b3a52f5-2d39-423c-949d-97d16de29981"/><linearGradient id="f96fe5edc-c046-4f8b-a5cb-52b810eaaf57" x1="164.64" y1="67.63" x2="136.56" y2="157.58" href="#a8b3a52f5-2d39-423c-949d-97d16de29981"/><linearGradient id="gbe2a3ce7-14f8-4f20-93a5-d7b0d2bd11aa" x1="155.74" y1="64.85" x2="127.67" y2="154.8" href="#a8b3a52f5-2d39-423c-949d-97d16de29981"/></defs><g style="isolation:isolate"><path d="M81.05 57.63s-2.11 2.43-8.89-5.56S31.29 21.25 3.82 22.6L0 69.33S27.71 73 41 92.53a3.57 3.57 0 0 0 3.87.43z" fill="url(#a8b3a52f5-2d39-423c-949d-97d16de29981)"/><path d="M80.94 54.32S82.08 22.94 49.56 0L38.92 25.93s28.19 9.14 42 28.88" fill="url(#bc1cbd4b4-df84-4a04-a9ec-16c64a6fb478)"/><path fill="url(#c44b8fb0b-dc81-45b7-83c9-0b8bdfc96115)" d="M41.31 88.86L31.85 100l.14-4.56-4.43.31 10.25-10.7 3.5 3.81z"/><path d="M81 57.66c-.2.18-1.47 1.1-4.65-1.39L40 91.19c.33.44.66.88 1 1.34a3.57 3.57 0 0 0 3.87.43" fill="#333" opacity=".1" style="mix-blend-mode:multiply"/><path d="M82.54 56.69a.32.32 0 0 1-.14-.63c.13 0 12.83-3.5 16.62-15.92a.32.32 0 0 1 .4-.22.32.32 0 0 1 .22.4C95.74 53.1 82.7 56.65 82.56 56.68z" fill="url(#d9debf231-580f-44e3-a14c-837e806f5d07)"/><path d="M81.85 54.65a.3.3 0 0 1-.32-.13.32.32 0 0 1 .08-.45c.09-.06 9.11-6.46 8.71-18.23a.33.33 0 0 1 .31-.34.32.32 0 0 1 .34.31c.41 12.14-8.9 18.73-9 18.79a.21.21 0 0 1-.12.05z" fill="url(#e0e75c2b6-d8f3-4f7d-9e7f-f98dce68d017)"/><path d="M100.42 39.6a1 1 0 0 1-.81 1.15 1 1 0 1 1 .81-1.15z" fill="url(#f96fe5edc-c046-4f8b-a5cb-52b810eaaf57)"/><path d="M91.57 35.36a1 1 0 1 1-1.15-.8 1 1 0 0 1 1.15.8z" fill="url(#gbe2a3ce7-14f8-4f20-93a5-d7b0d2bd11aa)"/></g></svg>